<?xml version="1.0" encoding="UTF-8"?>
<svg width="192px" height="47px" viewBox="0 0 192 47" version="1.1" xmlns="http://www.w3.org/2000/svg" xmlns:xlink="http://www.w3.org/1999/xlink">
    <title>pacemaker logo</title>
    <g id="Page-1" stroke="none" stroke-width="1" fill="none" fill-rule="evenodd">
        <g id="pacemaker-logo" transform="translate(1.000000, 1.000000)" fill-rule="nonzero">
            <rect id="Rectangle" stroke="#00A0F5" stroke-width="1.71122021" fill="#FFFFFF" x="0" y="0" width="89.1034483" height="45"></rect>
            <rect id="Rectangle" stroke="#00A0F5" stroke-width="1.71122021" fill="#00A0F5" x="86.4827586" y="0" width="103.517241" height="45"></rect>
            <path d="M11.0483987,18.0051453 L11.0483987,39.8571429 L7.86206897,39.8571429 L7.86206897,14.4816703 L10.7743067,14.4816703 L11.0483987,18.0051453 Z M23.5367289,23.4934591 L23.5367289,23.8492715 C23.5367289,25.1818875 23.3768784,26.4184495 23.0569583,27.5589572 C22.7372575,28.6884067 22.2691084,29.6708478 21.652292,30.5064974 C21.047097,31.342147 20.2989796,31.9915425 19.4082026,32.4544672 C18.5173819,32.9176088 17.4952602,33.1489627 16.3417936,33.1489627 C15.1654788,33.1489627 14.1262099,32.9570712 13.2239869,32.5730714 C12.321764,32.1890715 11.556609,31.6300926 10.9284779,30.8961348 C10.300347,30.16196 9.79783775,29.2812106 9.42097232,28.2534526 C9.05550909,27.2259116 8.80426547,26.0682745 8.6672195,24.7809753 L8.6672195,22.8837429 C8.80426547,21.5285768 9.06121021,20.314565 9.43809758,19.2417072 C9.81498495,18.1688493 10.3117711,17.2541014 10.9284779,16.4974634 C11.556609,15.7295505 12.3160629,15.1479567 13.2068617,14.7527035 C14.0976604,14.3461537 15.1255052,14.1428571 16.2903959,14.1428571 C17.4552867,14.1428571 18.4888324,14.3687254 19.3910554,14.8204402 C20.2932784,15.2608799 21.052798,15.893298 21.6693953,16.7176726 C22.2862118,17.5420688 22.7486596,18.5302992 23.0569583,19.6820818 C23.3768784,20.8228064 23.5367289,22.0931932 23.5367289,23.4934591 Z M20.3503773,23.8492715 L20.3503773,23.4934591 C20.3503773,22.578668 20.2533048,21.7204683 20.05916,20.9186438 C19.8650152,20.1055441 19.5623738,19.3941363 19.151236,18.7842032 C18.7515221,18.1632119 18.2375889,17.6775204 17.6094579,17.3275189 C16.9813269,16.9661341 16.2332971,16.7854525 15.3653247,16.7854525 C14.5658972,16.7854525 13.8692432,16.9209692 13.2753847,17.1920022 C12.6929503,17.4630355 12.1961422,17.8299494 11.7850043,18.293091 C11.3738664,18.7447408 11.0369745,19.2642571 10.7743067,19.8514234 C10.5230412,20.4275316 10.3345975,21.025973 10.2089757,21.647181 L10.2089757,26.0344496 C10.4373929,26.8249992 10.7571595,27.5702321 11.1682974,28.2703652 C11.5794353,28.95944 12.1276192,29.5184188 12.812849,29.9475186 C13.4980789,30.3653433 14.3603282,30.5743642 15.3995971,30.5743642 C16.2561454,30.5743642 16.992751,30.3991682 17.6094579,30.0492103 C18.2375889,29.6877603 18.7515221,29.1964313 19.151236,28.5754401 C19.5623738,27.9542319 19.8650152,27.2428241 20.05916,26.4409994 C20.2533048,25.6278999 20.3503773,24.7640628 20.3503773,23.8492715 Z M38.5089459,29.6764854 L38.5089459,20.2410608 C38.5089459,19.5183778 38.3604976,18.8915322 38.0636012,18.3607409 C37.778107,17.8186745 37.3441648,17.4009147 36.7615549,17.1072882 C36.1791644,16.8136833 35.4597279,16.6668701 34.6032454,16.6668701 C33.803774,16.6668701 33.1014408,16.8023866 32.4960267,17.0734198 C31.9022339,17.3444531 31.4340849,17.7000703 31.0913603,18.140662 C30.7602572,18.5810366 30.5944864,19.0552362 30.5944864,19.5634778 L27.4253258,19.5634778 C27.4253258,18.9084448 27.5967978,18.259266 27.9393031,17.6154863 C28.2818083,16.9717715 28.772981,16.3901777 29.412602,15.8707046 C30.0636252,15.3399349 30.8400729,14.9220884 31.7423836,14.6171869 C32.6558771,14.3009671 33.6724292,14.1428571 34.7916014,14.1428571 C36.1392566,14.1428571 37.3268421,14.3687254 38.3547966,14.8204402 C39.3941532,15.2721766 40.2050267,15.9553971 40.7874173,16.870145 C41.38121,17.7735745 41.6781064,18.9084448 41.6781064,20.2751025 L41.6781064,28.8124314 C41.6781064,29.4223647 41.7296357,30.0717602 41.8322557,30.7606181 C41.9464973,31.449476 42.1120488,32.0422799 42.3291296,32.5392463 L42.3291296,32.8102796 L39.0229231,32.8102796 C38.8630726,32.4488298 38.7374289,31.9689926 38.6459918,31.3703345 C38.5545547,30.7606181 38.5089459,30.1960017 38.5089459,29.6764854 Z M39.0571298,21.6979184 L39.0913363,23.9000089 L35.8879692,23.9000089 C34.9856585,23.9000089 34.1807053,23.9735132 33.4724517,24.1203047 C32.7644175,24.2558214 32.1706247,24.4646252 31.6908542,24.7469334 C31.211303,25.0294585 30.8457739,25.3850541 30.5944864,25.8141538 C30.3434182,26.2319787 30.2177745,26.7233076 30.2177745,27.2879239 C30.2177745,27.8640321 30.3491194,28.3889692 30.6118091,28.8633857 C30.8742796,29.3375854 31.2683141,29.7159478 31.7936935,29.998256 C32.3304752,30.2692892 32.9871994,30.4048057 33.7636471,30.4048057 C34.7345902,30.4048057 35.5910727,30.2016393 36.3333137,29.7950894 C37.075774,29.3885396 37.6638656,28.8915732 38.0978079,28.3044069 C38.5431525,27.7170238 38.7830379,27.1467698 38.8172444,26.5934284 L40.1706008,28.1010236 C40.0907852,28.5754401 39.8737044,29.1005941 39.5195776,29.6764854 C39.1656702,30.2523767 38.6916007,30.8057181 38.0978079,31.3365094 C37.5154173,31.856026 36.8187853,32.2907632 36.0079118,32.640938 C35.2084404,32.9796211 34.3061297,33.1489627 33.3011991,33.1489627 C32.044981,33.1489627 30.9429121,32.9063338 29.9949926,32.4206423 C29.0584752,31.9351675 28.3276365,31.285772 27.8022571,30.4726725 C27.2882799,29.6482979 27.0312913,28.7278692 27.0312913,27.7113862 C27.0312913,26.7289451 27.2255677,25.8651081 27.6139011,25.1196583 C28.0020154,24.3631505 28.5618207,23.7363049 29.2926594,23.2393384 C30.0234981,22.7313137 30.9030043,22.3473139 31.9307394,22.0875558 C32.9586939,21.8277975 34.1063716,21.6979184 35.373992,21.6979184 L39.0571298,21.6979184 Z M54.080876,30.5743642 C54.8345192,30.5743642 55.5311514,30.4217183 56.1707722,30.11686 C56.8103932,29.8120019 57.3355533,29.3941772 57.7469106,28.8633857 C58.1578292,28.3213193 58.3920132,27.7057488 58.4492436,27.0168907 L61.4642549,27.0168907 C61.4070245,28.1010236 61.0360136,29.111869 60.3505645,30.0492103 C59.6769562,30.9750597 58.7917489,31.7261468 57.6953812,32.3020381 C56.5990134,32.8666545 55.3941053,33.1489627 54.080876,33.1489627 C52.6876119,33.1489627 51.4713015,32.9063338 50.4319449,32.4206423 C49.4042098,31.9351675 48.5475081,31.2688595 47.8622783,30.4217183 C47.1884506,29.5747937 46.6803939,28.6036274 46.3376693,27.5082198 C46.0065662,26.401537 45.8410146,25.2326249 45.8410146,24.0017005 L45.8410146,23.2902927 C45.8410146,22.0593683 46.0065662,20.8960939 46.3376693,19.800686 C46.6803939,18.6940032 47.1884506,17.7171997 47.8622783,16.870145 C48.5475081,16.0231554 49.4042098,15.3568691 50.4319449,14.8712643 C51.4713015,14.3856595 52.6876119,14.1428571 54.080876,14.1428571 C55.5311514,14.1428571 56.7989909,14.4364837 57.8837372,15.0237367 C58.9687027,15.5996714 59.8197033,16.3901777 60.4363006,17.3952555 C61.0645193,18.3891451 61.4070245,19.5183778 61.4642549,20.7831272 L58.4492436,20.7831272 C58.3920132,20.0266192 58.1751516,19.3433989 57.7982205,18.7334656 C57.4326915,18.1237494 56.9303358,17.6380579 56.2907148,17.2766947 C55.6624962,16.9040133 54.9259563,16.7176726 54.080876,16.7176726 C53.1101521,16.7176726 52.2935773,16.9096725 51.631152,17.293629 C50.9801288,17.6662454 50.4604504,18.1744868 50.0723363,18.8182449 C49.695405,19.4505112 49.4213133,20.1564984 49.2500605,20.9355563 C49.0899909,21.703556 49.0101753,22.488468 49.0101753,23.2902927 L49.0101753,24.0017005 C49.0101753,24.8035253 49.0899909,25.5940748 49.2500605,26.3731328 C49.409911,27.1524074 49.6783018,27.8581779 50.0550137,28.4906608 C50.4433472,29.123144 50.9630255,29.6313854 51.6140486,30.0151683 C52.276474,30.3878932 53.0987499,30.5743642 54.080876,30.5743642 Z M72.7191276,33.1489627 C71.4284834,33.1489627 70.2580012,32.9345213 69.2072424,32.5054215 C68.168105,32.06483 67.2714956,31.449476 66.5178524,30.6589265 C65.7753921,29.8683769 65.2044039,28.9310356 64.8046681,27.8469029 C64.4049324,26.76277 64.2051743,25.5771623 64.2051743,24.2896463 L64.2051743,23.5782383 C64.2051743,22.0875558 64.4277368,20.7605772 64.8733008,19.5973027 C65.3186453,18.4229701 65.9238403,17.4291455 66.689105,16.616046 C67.4541504,15.8029463 68.3222544,15.1874841 69.2929783,14.7696377 C70.2637024,14.3517912 71.268633,14.1428571 72.3079896,14.1428571 C73.6326211,14.1428571 74.774817,14.3687254 75.7341387,14.8204402 C76.7048628,15.2721766 77.498633,15.9045729 78.1152303,16.7176726 C78.7320468,17.5194971 79.1887935,18.46807 79.48569,19.5634778 C79.7825862,20.6476105 79.9310345,21.8334351 79.9310345,23.1207343 L79.9310345,24.5268545 L66.0893919,24.5268545 L66.0893919,21.9689516 L76.7618738,21.9689516 L76.7618738,21.7317434 C76.7162651,20.9186438 76.5450123,20.1280942 76.2478967,19.3603112 C75.9624025,18.5923115 75.5056557,17.9598286 74.877437,17.4630355 C74.2494376,16.9661341 73.3929551,16.7176726 72.3079896,16.7176726 C71.5883339,16.7176726 70.9261277,16.870145 70.3207134,17.1750466 C69.7155185,17.468673 69.1958402,17.9090912 68.7618979,18.4962574 C68.3279554,19.0836406 67.990932,19.800686 67.7510468,20.6476105 C67.5113808,21.4945351 67.3914382,22.4715556 67.3914382,23.5782383 L67.3914382,24.2896463 C67.3914382,25.1593376 67.5113808,25.9780747 67.7510468,26.7458575 C68.0023343,27.5025822 68.3621621,28.1688902 68.8303111,28.7447815 C69.3100817,29.320673 69.8867711,29.7725395 70.5605988,30.0999477 C71.2458286,30.4273557 72.0224954,30.5912765 72.8903802,30.5912765 C74.0095524,30.5912765 74.9574719,30.3653433 75.7341387,29.9136936 C76.5105864,29.4618271 77.1901151,28.8577483 77.7727249,28.1010236 L79.6913685,29.6086186 C79.2916329,30.2072767 78.7833568,30.7775306 78.1665402,31.3195971 C77.549943,31.8616634 76.7903795,32.3020381 75.8882881,32.640938 C74.9973796,32.9796211 73.941139,33.1489627 72.7191276,33.1489627 Z" id="Shape" fill="#00A0F5"></path>
            <path d="M93.6258479,18.7702313 L93.6258479,33.098158 L90.4137931,33.098158 L90.4137931,15.2170815 L93.4532091,15.2170815 L93.6258479,18.7702313 Z M92.9695552,23.4799972 L91.4845517,23.4304987 C91.4960462,22.2076307 91.6629378,21.0782598 91.9852265,20.0425979 C92.3077362,18.9959362 92.7854219,18.0870879 93.4187255,17.3158624 C94.0518083,16.544658 94.840509,15.9497235 95.784607,15.5310588 C96.7287049,15.1013945 97.8222314,14.8865411 99.0656289,14.8865411 C99.9407597,14.8865411 100.746702,15.0077491 101.483457,15.2501228 C102.220211,15.4814968 102.859262,15.8505571 103.400389,16.3573673 C103.941515,16.8641564 104.361728,17.5141738 104.661028,18.3073987 C104.960327,19.1006448 105.109977,20.0590974 105.109977,21.1829684 L105.109977,33.098158 L101.915164,33.098158 L101.915164,21.3316755 C101.915164,20.3952222 101.748273,19.6459749 101.414268,19.0841452 C101.09198,18.5223155 100.631536,18.1146294 100.032716,17.8612348 C99.4341165,17.5968196 98.7318457,17.4646118 97.9259032,17.4646118 C96.9818052,17.4646118 96.1933255,17.6243611 95.5600217,17.9438593 C94.9267179,18.2633576 94.4202961,18.7040217 94.0403138,19.2658513 C93.6603315,19.8278926 93.3840209,20.4722199 93.2113822,21.1994679 C93.0502379,21.9155047 92.9695552,22.6757516 92.9695552,23.4799972 Z M105.075494,21.7942966 L102.933976,22.4223359 C102.945692,21.4418838 103.112584,20.4999307 103.434872,19.5964764 C103.768655,18.693022 104.246562,17.8887763 104.86815,17.1836546 C105.501454,16.4785542 106.27866,15.922182 107.199548,15.5145381 C108.120657,15.0958735 109.174174,14.8865411 110.359878,14.8865411 C111.361448,14.8865411 112.248073,15.013249 113.019311,15.2666435 C113.802265,15.520038 114.458558,15.9111612 114.98819,16.4399918 C115.529316,16.9578016 115.938035,17.6243611 116.214345,18.4396063 C116.490656,19.2548517 116.628811,20.2245157 116.628811,21.3481751 L116.628811,33.098158 L113.416535,33.098158 L113.416535,21.315176 C113.416535,20.3125131 113.249644,19.5357666 112.915861,18.9849366 C112.593351,18.4231069 112.132907,18.0319837 111.534308,17.8116517 C110.946982,17.5802777 110.244711,17.4646118 109.427274,17.4646118 C108.725003,17.4646118 108.103415,17.5802777 107.562289,17.8116517 C107.021162,18.0430046 106.566465,18.3626085 106.197978,18.7702313 C105.82949,19.1668543 105.547432,19.6239756 105.351804,20.1418065 C105.167671,20.6596376 105.075494,21.2104676 105.075494,21.7942966 Z M132.481963,30.0408822 L132.481963,20.8358439 C132.481963,20.1308068 132.332313,19.519267 132.033013,19.0014361 C131.745208,18.4726054 131.307753,18.0650461 130.720649,17.7785892 C130.133323,17.4921533 129.408063,17.3489248 128.544648,17.3489248 C127.738705,17.3489248 127.030687,17.4811324 126.420372,17.7455478 C125.821773,18.0099631 125.349835,18.3568972 125.004336,18.7867309 C124.670553,19.2163528 124.503662,19.6789739 124.503662,20.1748056 L121.308627,20.1748056 C121.308627,19.5357666 121.481487,18.9024389 121.826765,18.2743785 C122.172264,17.6463814 122.667191,17.0789885 123.311989,16.5721995 C123.968282,16.0543896 124.751015,15.6467458 125.660629,15.3492891 C126.581738,15.0407905 127.606297,14.8865411 128.734529,14.8865411 C130.093092,14.8865411 131.290512,15.1068943 132.326566,15.5475795 C133.374335,15.9882858 134.191772,16.654824 134.778877,17.5472363 C135.377476,18.4286066 135.676776,19.5357666 135.676776,20.8690545 L135.676776,29.197926 C135.676776,29.7929664 135.728722,30.4265055 135.832394,31.0985435 C135.947339,31.7705814 136.114452,32.3489107 136.333069,32.8337426 L136.333069,33.098158 L133.0001,33.098158 C132.838956,32.7455338 132.712295,32.2774128 132.620118,31.6933723 C132.528162,31.0985435 132.481963,30.5477134 132.481963,30.0408822 Z M133.034584,22.2571292 L133.069288,24.4054509 L129.839771,24.4054509 C128.930377,24.4054509 128.118688,24.4771605 127.404922,24.6203677 C126.690936,24.7525755 126.092337,24.9562809 125.608904,25.2316959 C125.12525,25.5073225 124.756762,25.8542355 124.503662,26.2728578 C124.25034,26.6804806 124.123679,27.1598126 124.123679,27.7106426 C124.123679,28.2726839 124.256087,28.7848035 124.520903,29.2476361 C124.785719,29.7102572 125.182722,30.0793811 125.712354,30.3547961 C126.253481,30.6192114 126.915521,30.751419 127.698475,30.751419 C128.677056,30.751419 129.540471,30.5532133 130.28872,30.1565902 C131.03719,29.7599673 131.630042,29.2751353 132.067497,28.702306 C132.516667,28.1292651 132.758273,27.5729351 132.792978,27.0331048 L134.157068,28.5038887 C134.076606,28.9667213 133.857768,29.4790525 133.500996,30.0408822 C133.144003,30.6027119 132.666317,31.1425422 132.067497,31.6603731 C131.480392,32.1672046 130.778121,32.5913267 129.960684,32.9329513 C129.154742,33.2633647 128.245348,33.4285714 127.232062,33.4285714 C125.965676,33.4285714 124.854686,33.1918669 123.899094,32.7180346 C122.954996,32.2444137 122.218242,31.6108746 121.68861,30.8176287 C121.170472,30.013383 120.911624,29.1154285 120.911624,28.1237652 C120.911624,27.1653125 121.107252,26.3225679 121.498729,25.5953199 C121.890206,24.8572839 122.454322,24.2457441 123.191076,23.7609121 C123.92783,23.2652919 124.814456,22.8906683 125.85051,22.6372528 C126.886785,22.3838371 128.043752,22.2571292 129.321633,22.2571292 L133.034584,22.2571292 Z M143.914367,7.71428571 L143.914367,33.098158 L140.702312,33.098158 L140.702312,7.71428571 L143.914367,7.71428571 Z M155.329529,15.2170815 L147.178368,23.5627064 L142.619244,28.0907662 L142.360175,24.8352845 L145.623955,21.1002593 L151.426477,15.2170815 L155.329529,15.2170815 Z M152.411026,33.098158 L145.744869,24.5708692 L147.402732,21.8440067 L156.175702,33.098158 L152.411026,33.098158 Z M166.036452,33.4285714 C164.735582,33.4285714 163.555404,33.2193661 162.496361,32.8007437 C161.448592,32.3709102 160.544725,31.7705814 159.784981,30.9993348 C159.036732,30.2280882 158.460901,29.3136342 158.05793,28.2559729 C157.655179,27.1983115 157.453583,26.041653 157.453583,24.7855744 L157.453583,24.091537 C157.453583,22.6372528 157.678168,21.3426752 158.127118,20.2078046 C158.576067,19.0621459 159.186382,18.0925877 159.95762,17.2993417 C160.729079,16.5060957 161.603989,15.9056613 162.58257,15.4980175 C163.561151,15.0903736 164.574437,14.8865411 165.621986,14.8865411 C166.957561,14.8865411 168.108781,15.1068943 169.075868,15.5475795 C170.054449,15.9882858 170.854645,16.6052408 171.476454,17.3984869 C172.098042,18.1807331 172.558485,19.1061445 172.858007,20.1748056 C173.157305,21.2324669 173.306956,22.389337 173.306956,23.6452039 L173.306956,25.0169907 L159.353273,25.0169907 L159.353273,22.5215446 L170.112143,22.5215446 L170.112143,22.2901283 C170.065944,21.4968822 169.893305,20.7256356 169.594005,19.9765998 C169.3062,19.2273525 168.845756,18.6103129 168.212453,18.1256501 C167.579149,17.6408817 166.715734,17.3984869 165.621986,17.3984869 C164.896726,17.3984869 164.228939,17.5472363 163.618845,17.8446931 C163.00853,18.13115 162.484646,18.5608144 162.047191,19.1336437 C161.609736,19.7066847 161.270205,20.4062218 161.028378,21.2324669 C160.786551,22.0587119 160.665638,23.0118764 160.665638,24.091537 L160.665638,24.7855744 C160.665638,25.6340304 160.786551,26.4327762 161.028378,27.1818119 C161.2817,27.9200596 161.644219,28.5700982 162.116379,29.1319279 C162.599812,29.6937578 163.18139,30.1345909 163.860451,30.4540047 C164.551227,30.7734183 165.334181,30.9333367 166.209091,30.9333367 C167.337543,30.9333367 168.293135,30.7129202 169.075868,30.2722984 C169.858821,29.8314653 170.543851,29.2421364 171.130956,28.5038887 L173.065128,29.9746725 C172.662157,30.5587131 172.149767,31.115043 171.528178,31.6438737 C170.906369,32.1727043 170.140879,32.6023264 169.231265,32.9329513 C168.333366,33.2633647 167.268355,33.4285714 166.036452,33.4285714 Z M180.23196,18.0264838 L180.23196,33.098158 L177.037148,33.098158 L177.037148,15.2170815 L180.14553,15.2170815 L180.23196,18.0264838 Z M186.068966,15.1179151 L186.051724,17.9603801 C185.786909,17.9052971 185.533587,17.8722346 185.291981,17.8612348 C185.061649,17.8391932 184.796832,17.8281723 184.497533,17.8281723 C183.760558,17.8281723 183.110234,17.9383383 182.546117,18.1586915 C181.982002,18.3791081 181.504095,18.6875223 181.112618,19.0841452 C180.721141,19.4807682 180.410347,19.9546005 180.180236,20.5054305 C179.961398,21.0452609 179.817495,21.6400897 179.748308,22.2901283 L178.850409,22.7859599 C178.850409,21.7062992 178.959827,20.6926365 179.178444,19.7451835 C179.408776,18.7977305 179.760023,17.9603801 180.23196,17.2332379 C180.7039,16.4950748 181.30272,15.922182 182.02798,15.5145381 C182.764734,15.0958735 183.639865,14.8865411 184.652931,14.8865411 C184.883262,14.8865411 185.148079,14.9141038 185.447377,14.9691868 C185.746677,15.013249 185.9538,15.0628321 186.068966,15.1179151 Z" id="Shape" fill="#FFFFFF"></path>
        </g>
    </g>
</svg>